<svg xmlns="http://www.w3.org/2000/svg" viewBox="0 0 22 22"><g transform="translate(-1560 -374)"><rect width="22" height="22" rx="2" transform="translate(1560 374)" fill="#212121"/><g fill="#fff"><path d="M1569.552 384.511a2.453 2.453 0 00.772-.566 2.2 2.2 0 00.467-1.469 2.513 2.513 0 00-.466-1.523 3.119 3.119 0 00-2.619-1.063h-4.881v9.968h4.553a7.118 7.118 0 001.428-.134 2.808 2.808 0 001.142-.5 2.764 2.764 0 00.715-.784 2.88 2.88 0 00.451-1.589 2.615 2.615 0 00-.393-1.46 2.271 2.271 0 00-1.169-.88zm-4.713-2.89h2.2a3.877 3.877 0 011.195.155.894.894 0 01.543.922.938.938 0 01-.411.875 2.061 2.061 0 01-1.069.247h-2.458zm3.478 6.331a2.409 2.409 0 01-1.024.176h-2.454v-2.658h2.486a2.6 2.6 0 011.012.168 1.069 1.069 0 01.643 1.07 1.253 1.253 0 01-.663 1.245zM1573.274 380.355h4.33v1.241h-4.33zM1579.108 385.252a3.556 3.556 0 00-.6-1.524 3.009 3.009 0 00-1.29-1.09 4.269 4.269 0 00-1.758-.345 3.638 3.638 0 00-2.669 1.02 3.965 3.965 0 00-1.029 2.939 3.541 3.541 0 001.142 2.951 4.1 4.1 0 002.632.907 3.663 3.663 0 002.812-1.074 2.418 2.418 0 00.724-1.333h-1.995a1.609 1.609 0 01-.4.507 1.67 1.67 0 01-1.083.337 2 2 0 01-1.078-.278 1.76 1.76 0 01-.783-1.554h5.444a9.385 9.385 0 00-.069-1.463zm-5.33.191a2 2 0 01.521-1.141 1.571 1.571 0 011.166-.422 1.734 1.734 0 011.16.4 1.611 1.611 0 01.52 1.166z"/></g></g></svg>