<svg xmlns="http://www.w3.org/2000/svg" viewBox="0 0 29.532 25.226"><g fill="#ee6c4d"><path d="M19.073 4.922a2.461 2.461 0 10-2.461-2.461 2.468 2.468 0 002.461 2.461zM6.153 12.92a6.153 6.153 0 106.153 6.153 6.171 6.171 0 00-6.153-6.153zm0 10.459a4.307 4.307 0 114.307-4.307 4.28 4.28 0 01-4.307 4.307z"/><path d="M23.318 11.629V9.167a6.214 6.214 0 01-4.491-1.784l-2.4-2.338a2.307 2.307 0 00-3.384 0L9.659 8.429a2.467 2.467 0 00-.738 1.723 2.74 2.74 0 00.738 1.784l3.876 3.445v6.153h2.461v-7.691l-2.707-2.707 2.892-2.953.923.923a8.432 8.432 0 006.214 2.523z"/><path d="M23.38 12.92a6.153 6.153 0 106.153 6.153 6.171 6.171 0 00-6.153-6.153zm0 10.459a4.307 4.307 0 114.307-4.307 4.28 4.28 0 01-4.307 4.307z"/></g></svg>