<svg xmlns="http://www.w3.org/2000/svg" viewBox="0 0 132.858 132.858"><defs><filter id="a" x="0" y="0" width="132.858" height="132.858" filterUnits="userSpaceOnUse"><feOffset dy="3"/><feGaussianBlur stdDeviation="3" result="b"/><feFlood flood-opacity=".161"/><feComposite operator="in" in2="b"/><feComposite in="SourceGraphic"/></filter></defs><g transform="translate(-91.678 -66.214)"><g transform="translate(91.68 66.21)" filter="url(#a)"><circle cx="57.429" cy="57.429" r="57.429" transform="translate(9 6)" fill="#004a94"/></g><path d="M184.525 149.734a32.554 32.554 0 11-39.374-51.168l-36.189 1.349a57.427 57.427 0 0091.287 68.729z" fill="#d1d3d3"/><path d="M215.744 136.336a13.952 13.952 0 00-21.612-11.67l-.048.033a7.83 7.83 0 00-.239.166c-9.158 6.118-16.015 27.5-25.047 35.551l.009-.007a31.246 31.246 0 11-21.03-54.355c3.458 0 13.4 2.673 21.71.974a17.385 17.385 0 005.183-1.838.2.2 0 00.029-.015c.064-.035.118-.076.181-.113a17.5 17.5 0 00-4.21-32.187 58.1 58.1 0 00-36.112 3.61l-6.024 3.1a58.143 58.143 0 1087.2 57.764l-.036-.021c.02-.328.046-.658.046-.992z" fill="#c9c9c9"/><circle cx="11.419" cy="11.419" r="11.419" transform="translate(140.233 115.683)" fill="#38a3ff"/></g></svg>