<svg xmlns="http://www.w3.org/2000/svg" viewBox="0 0 22.956 22"><path d="M11.478 0A11.379 11.379 0 000 11.279a11.3 11.3 0 007.848 10.7c.574.106.784-.243.784-.542 0-.268-.01-.978-.014-1.918-3.193.68-3.866-1.513-3.866-1.513a3.007 3.007 0 00-1.277-1.65c-1.04-.7.08-.685.08-.685a2.4 2.4 0 011.758 1.162 2.472 2.472 0 003.343.938 2.388 2.388 0 01.727-1.508c-2.549-.282-5.228-1.252-5.228-5.574a4.309 4.309 0 011.181-3.025 3.946 3.946 0 01.1-2.985s.961-.3 3.156 1.156a11.005 11.005 0 015.739 0c2.181-1.459 3.142-1.156 3.142-1.156a4.055 4.055 0 01.115 2.985 4.327 4.327 0 011.177 3.026c0 4.333-2.683 5.287-5.237 5.564a2.676 2.676 0 01.775 2.087c0 1.509-.014 2.722-.014 3.089 0 .3.2.649.789.536a11.264 11.264 0 007.878-10.687A11.381 11.381 0 0011.478 0z" fill="#212121"/></svg>