<svg xmlns="http://www.w3.org/2000/svg" viewBox="0 0 22 22"><path d="M1.435 1.527C-.289 3.317.064 5.219.064 10.996c0 4.8-.837 9.607 3.545 10.74a104.445 104.445 0 0014.859 0 4.711 4.711 0 003.512-4.53c.028-.36.028-12.049 0-12.417A4.718 4.718 0 0017.841.138a19.738 19.738 0 00-3.235-.1C5.308.038 3.27-.375 1.435 1.527z" fill="#212121"/><path d="M11.031 2.903c-3.319 0-6.47-.3-7.674 2.794-.5 1.276-.425 2.933-.425 5.3 0 2.082-.067 4.038.425 5.3 1.2 3.091 4.378 2.795 7.672 2.795 3.178 0 6.455.331 7.673-2.795.5-1.289.425-2.921.425-5.3 0-3.164.175-5.206-1.36-6.74-1.554-1.554-3.655-1.359-6.74-1.359zm-.726 1.462c6.923-.011 7.8-.78 7.318 9.909-.173 3.781-3.052 3.366-6.591 3.366-6.453 0-6.639-.185-6.639-6.639.002-6.536.512-6.636 5.912-6.636zm5.049 1.344a.971.971 0 10.972.971.972.972 0 00-.972-.973zm-4.323 1.134a4.158 4.158 0 104.158 4.159 4.159 4.159 0 00-4.158-4.159zm0 1.459c3.569 0 3.574 5.4 0 5.4s-3.574-5.4 0-5.4z" fill="#fff"/></svg>