<svg xmlns="http://www.w3.org/2000/svg" viewBox="0 0 26.2 18.659"><path d="M16.249 13.061a4.02 4.02 0 003.654 2.255c1.555 0 2.566-.777 2.566-1.866 0-1.244-1.011-1.71-2.721-2.488l-.933-.389c-2.721-1.166-4.509-2.566-4.509-5.6 0-2.8 2.1-4.976 5.442-4.976a5.408 5.408 0 015.287 3.032l-2.877 1.866a2.523 2.523 0 00-2.41-1.633 1.638 1.638 0 00-1.788 1.633c0 1.088.7 1.555 2.332 2.255l.933.389c3.188 1.4 4.976 2.721 4.976 5.909 0 3.343-2.643 5.209-6.22 5.209-3.5 0-5.753-1.633-6.842-3.81zm-13.217.311c.622 1.011 1.088 1.944 2.41 1.944 1.244 0 2.021-.466 2.021-2.332V.078H11.2v12.75c0 3.887-2.255 5.6-5.6 5.6A5.727 5.727 0 010 15z" fill="#ee6c4d"/></svg>