<svg xmlns="http://www.w3.org/2000/svg" viewBox="0 0 22 15.231"><g fill="#fff"><path d="M21.825 1.867l-5.69 5.8a.1.1 0 000 .148l3.982 4.241a.686.686 0 010 .973.689.689 0 01-.973 0l-3.966-4.225a.109.109 0 00-.153 0l-.968.984a4.258 4.258 0 01-3.036 1.28 4.343 4.343 0 01-3.1-1.317l-.931-.947a.109.109 0 00-.153 0l-3.971 4.217a.689.689 0 01-.973 0 .686.686 0 010-.973l3.982-4.236a.113.113 0 000-.148l-5.7-5.8a.1.1 0 00-.18.074v11.6a1.7 1.7 0 001.697 1.693h18.616A1.7 1.7 0 0022 13.539V1.941a.106.106 0 00-.175-.074z"/><path d="M11 9.683a2.875 2.875 0 002.068-.867l8.3-8.446A1.662 1.662 0 0020.321 0H1.687A1.651 1.651 0 00.64.37l8.3 8.446a2.875 2.875 0 002.06.867z"/></g></svg>