<svg xmlns="http://www.w3.org/2000/svg" viewBox="0 0 28.175 31.772"><path d="M14.086 31.772a2.426 2.426 0 01-1.22-.329l-3.888-2.3c-.581-.324-.3-.44-.106-.506a7.891 7.891 0 001.757-.8.3.3 0 01.289.022l2.985 1.774a.383.383 0 00.361 0l11.644-6.724a.364.364 0 00.179-.315V9.16a.376.376 0 00-.18-.321L14.268 2.125a.373.373 0 00-.359 0L2.272 8.841a.38.38 0 00-.183.32v13.436a.356.356 0 00.183.311l3.189 1.844c1.731.864 2.792-.154 2.792-1.178V10.309a.335.335 0 01.337-.334h1.477a.336.336 0 01.336.334v13.265c0 2.309-1.257 3.634-3.447 3.634a4.986 4.986 0 01-2.679-.728l-3.053-1.757a2.459 2.459 0 01-1.221-2.124V9.161A2.449 2.449 0 011.224 7.04L12.864.309a2.557 2.557 0 012.445 0l11.643 6.729a2.457 2.457 0 011.222 2.121v13.44a2.466 2.466 0 01-1.222 2.124l-11.643 6.722a2.422 2.422 0 01-1.223.327m3.6-9.258c-5.1 0-6.164-2.34-6.164-4.3a.337.337 0 01.337-.336h1.505a.336.336 0 01.334.285c.226 1.533.905 2.306 3.987 2.306 2.451 0 3.5-.555 3.5-1.857 0-.751-.3-1.307-4.107-1.681-3.186-.315-5.156-1.018-5.156-3.569 0-2.349 1.98-3.751 5.3-3.751 3.73 0 5.576 1.3 5.809 4.074a.335.335 0 01-.334.365h-1.52a.335.335 0 01-.327-.263c-.364-1.614-1.244-2.129-3.637-2.129-2.677 0-2.988.934-2.988 1.631 0 .846.367 1.093 3.983 1.571 3.578.474 5.278 1.143 5.278 3.659 0 2.542-2.114 4-5.8 4" fill="#83cd29"/></svg>