<svg xmlns="http://www.w3.org/2000/svg" viewBox="0 0 35.582 31.772"><circle cx="3.251" cy="3.251" r="3.251" transform="translate(14.54 12.618)" fill="#61dafb"/><path d="M17.791 27.822c2.552 2.482 5.068 3.95 7.1 3.95a3.512 3.512 0 001.818-.454c1.818-1.049 2.482-3.67 1.853-7.41-.1-.664-.245-1.328-.419-2.027.7-.21 1.328-.419 1.957-.629 3.53-1.363 5.488-3.251 5.488-5.313 0-2.1-1.957-3.985-5.488-5.313a16.034 16.034 0 00-1.957-.629c.175-.7.315-1.363.419-2.027.594-3.81-.07-6.466-1.887-7.515A3.512 3.512 0 0024.851 0c-1.992 0-4.544 1.468-7.1 3.95C15.239 1.468 12.723 0 10.7 0a3.512 3.512 0 00-1.818.454C7.06 1.5 6.4 4.124 7.026 7.864c.1.664.245 1.328.419 2.027-.7.21-1.328.419-1.957.629C1.958 11.883 0 13.771 0 15.833c0 2.1 1.957 3.985 5.488 5.313a16.034 16.034 0 001.957.629c-.175.7-.315 1.363-.419 2.027-.594 3.74.07 6.4 1.852 7.41a3.512 3.512 0 001.818.454c2.027.07 4.544-1.4 7.1-3.845zM15.834 23.1c.629.035 1.293.035 1.957.035s1.328 0 1.957-.035a32.977 32.977 0 01-1.957 2.342 31.274 31.274 0 01-1.957-2.342zM11.5 19.5c.35.594.664 1.153 1.049 1.713-1.084-.14-2.1-.315-3.076-.524.315-.944.664-1.922 1.084-2.9.28.559.594 1.153.944 1.713zm-2.028-8.42c.979-.21 1.992-.384 3.076-.524-.35.559-.7 1.118-1.049 1.713s-.664 1.153-.944 1.748a23.367 23.367 0 01-1.083-2.937zm1.922 4.789c.454-.944.944-1.887 1.5-2.831.524-.909 1.118-1.818 1.713-2.726 1.049-.07 2.1-.1 3.181-.1 1.118 0 2.167.035 3.181.1a39.486 39.486 0 011.713 2.726 35.866 35.866 0 011.5 2.831 37.974 37.974 0 01-1.5 2.831c-.524.909-1.118 1.818-1.713 2.726-1.049.07-2.1.1-3.181.1-1.118 0-2.167-.035-3.181-.1a39.486 39.486 0 01-1.713-2.726 35.866 35.866 0 01-1.5-2.831zm13.667-1.887l-.944-1.748c-.35-.594-.664-1.153-1.049-1.713 1.084.14 2.1.315 3.076.524a33.163 33.163 0 01-1.084 2.936zm0 3.775c.419.979.769 1.957 1.084 2.9-.979.21-1.992.384-3.076.524.35-.559.7-1.118 1.049-1.713.315-.524.629-1.118.944-1.713zm.8 12.129a1.9 1.9 0 01-1.014.245c-1.713 0-3.845-1.4-5.942-3.5a36.6 36.6 0 002.971-3.67 32.012 32.012 0 004.684-.734 18.068 18.068 0 01.384 1.887c.494 2.974.109 5.107-1.079 5.771zm1.818-18.42c3.915 1.118 6.257 2.831 6.257 4.4 0 1.363-1.608 2.726-4.439 3.81a22.04 22.04 0 01-1.818.594 36.736 36.736 0 00-1.713-4.4 31.657 31.657 0 001.717-4.405zm-2.8-9.857a1.98 1.98 0 011.021.243c1.153.664 1.573 2.761 1.084 5.767-.1.594-.245 1.223-.384 1.887a45.359 45.359 0 00-4.684-.734A32.294 32.294 0 0018.944 5.1c2.098-2.059 4.23-3.492 5.942-3.492zm-5.138 7.026c-.629-.035-1.293-.035-1.957-.035s-1.328 0-1.957.035a32.977 32.977 0 011.957-2.342 43.29 43.29 0 011.957 2.342zM9.717 1.852a1.9 1.9 0 011.014-.245c1.713 0 3.845 1.4 5.942 3.5a36.6 36.6 0 00-2.971 3.67 32.011 32.011 0 00-4.684.734 18.068 18.068 0 01-.384-1.887c-.49-2.975-.106-5.072 1.083-5.772zM7.9 20.273c-3.915-1.118-6.257-2.831-6.257-4.4 0-1.363 1.608-2.726 4.439-3.81a22.04 22.04 0 011.818-.594 36.736 36.736 0 001.713 4.4A33.445 33.445 0 007.9 20.273zm.734 3.845c.1-.594.245-1.223.384-1.887a45.36 45.36 0 004.684.734 32.293 32.293 0 002.971 3.67c-2.1 2.062-4.229 3.5-5.942 3.5a1.98 1.98 0 01-1.014-.245c-1.189-.669-1.573-2.802-1.084-5.773z" fill="#61dafb"/></svg>