<svg xmlns="http://www.w3.org/2000/svg" viewBox="0 0 27.52 27.617"><g fill="#ee6c4d"><path d="M13.712 3.509a.543.543 0 00.543-.543V.543a.543.543 0 10-1.086 0v2.423a.543.543 0 00.543.543zM26.99 18.662l-.96-.957a1.819 1.819 0 00-2.152-.307l-1.808-1.806.088-.088a1.885 1.885 0 000-2.662 1.865 1.865 0 00-.946-.511 1.9 1.9 0 00.075-.528 1.881 1.881 0 00-1.5-1.842 1.9 1.9 0 00.075-.528 1.879 1.879 0 00-1.5-1.842 1.88 1.88 0 00-2.009-2.4l-3.583-.678a1.936 1.936 0 00-1.66.221.981.981 0 00-.082.085 1.889 1.889 0 00-1.982.436 1.869 1.869 0 00-.55 1.332 1.9 1.9 0 00.075.529 1.881 1.881 0 00-1.5 1.84 1.894 1.894 0 00.075.53 1.884 1.884 0 00-1.168 2.907 1.882 1.882 0 00-.723 3.114l.088.087-1.798 1.804a1.816 1.816 0 00-2.055.356l-.96.958a1.815 1.815 0 000 2.563l1.2 1.2a.543.543 0 00.768-.769l-1.2-1.2a.728.728 0 010-1.025l.96-.958a.727.727 0 01.886-.109.548.548 0 00.068.084.541.541 0 00.156.109l5.507 5.5a.535.535 0 00.262.265.727.727 0 01-.03.992l-.959.958a.73.73 0 01-1.027 0l-4.625-4.62-.384.429s-.6.127-.384.339l4.625 4.619a1.819 1.819 0 002.562 0l.96-.959a1.816 1.816 0 00.254-2.243l2.035-2.033.007-.007c.233-.241.882-.2 1.51-.152a7.813 7.813 0 001.425.01l2.229 2.226a1.815 1.815 0 00.308 2.151l.96.959a1.816 1.816 0 002.562 0l5.822-5.815a1.814 1.814 0 000-2.563zM12.575 5.578l2.356.446-1.41 1.41a3.424 3.424 0 01-.845-.614 2.5 2.5 0 01-.8-1.235.475.475 0 010-.054 1.841 1.841 0 01.7.047zm-2.754.443a.8.8 0 011.014-.1 3.886 3.886 0 001.09 1.68 4.023 4.023 0 001.565.97.8.8 0 01-1.219 1.018l-2.45-2.445a.8.8 0 010-1.126zM8.406 8.393a.8.8 0 011.129 0l1.971 1.969a.8.8 0 01-1.13 1.128l-1.5-1.5-.007-.007-.468-.468a.8.8 0 010-1.126zm-1.422 2.37a.8.8 0 011.125 0l1.5 1.5a.8.8 0 01-1.13 1.125l-.544-.544-.952-.951a.8.8 0 010-1.127zm-.946 2.847a.8.8 0 011.13 0l.545.544a.8.8 0 01-1.135 1.124l-.072-.067-.471-.469a.8.8 0 010-1.127zm11.068 6.174a.543.543 0 00-.768 0l-.483.483c-.459.459-1.291.4-2.1.346a2.872 2.872 0 00-2.362.477l-2 2-5-5 1.771-1.768a1.884 1.884 0 002.868-1.607v-.014h.014a1.879 1.879 0 001.883-1.881v-.014h.014a1.877 1.877 0 001.883-1.9h.015a1.884 1.884 0 001.608-2.864l1.552-1.551a.8.8 0 01.405-.213l.048-.007a.8.8 0 01.676 1.351l-.473.471-.551.55a.543.543 0 00.768.769l.475-.474.072-.071a.8.8 0 011.127 0 .8.8 0 010 1.126l-.475.476-.544.542a.543.543 0 00.767.77l.547-.545a.8.8 0 011.128 1.127l-.948.948a.543.543 0 10.768.768l.464-.465.008-.007a.8.8 0 011.129 1.127l-.472.472-.75.749a.543.543 0 00.768.769l.367-.366 1.757 1.755-5 5-1.793-1.79a2.135 2.135 0 00.357-.287l.48-.484a.543.543 0 000-.768zm9.12.673l-5.822 5.815a.73.73 0 01-1.027 0l-.96-.959a.726.726 0 010-1.024l5.819-5.811a.73.73 0 011.027 0l.96.957a.728.728 0 010 1.025zM6.499 3.051a.543.543 0 00.767-.769L5.287.303a.543.543 0 10-.767.769zM20.541 3.21a.542.542 0 00.384-.159l1.978-1.976a.543.543 0 00-.768-.769l-1.977 1.977a.543.543 0 00.384.927z"/></g></svg>