<svg xmlns="http://www.w3.org/2000/svg" viewBox="0 0 32.649 31.772"><path d="M27.274 31.772H5.389A5.4 5.4 0 010 26.383V5.389A5.4 5.4 0 015.389 0h21.87a5.389 5.389 0 015.389 5.389v20.98a5.38 5.38 0 01-5.375 5.4z" fill="#2e001f"/><path d="M12.604 14.772l4.158 7.987c.074.118.03.238-.09.238h-2.584a.291.291 0 01-.312-.192c-.951-1.96-1.916-3.92-2.91-6.028h-.03a222.7 222.7 0 01-2.821 6.043.287.287 0 01-.268.164H5.3c-.148 0-.164-.118-.088-.208l4.068-7.751-3.934-7.839a.12.12 0 01.088-.208h2.554a.233.233 0 01.267.164c.935 1.96 1.886 3.98 2.777 5.954h.03c.861-1.96 1.812-3.994 2.732-5.939.074-.118.118-.192.268-.192h2.39c.118 0 .164.09.09.208zm4.886 2.42a5.808 5.808 0 015.954-6.162 6.55 6.55 0 01.773.03V7.126a.148.148 0 01.148-.148h2.346c.118 0 .148.044.148.118v13.631a10.6 10.6 0 00.074 1.455c0 .09-.03.118-.118.164a8.838 8.838 0 01-3.8.861c-3.223.013-5.525-1.975-5.523-6.015zm6.725-3.8a2.233 2.233 0 00-.861-.148c-1.871 0-3.177 1.439-3.177 3.831 0 2.733 1.337 3.831 3.015 3.831a2.781 2.781 0 001.025-.164v-7.35z" fill="#fd26be"/></svg>